<svg xmlns="http://www.w3.org/2000/svg" viewBox="0 0 32 32" width="32" height="32" shape-rendering="crispEdges"><rect x="14" y="12" width="1" height="1" fill="#ef476f"/><rect x="16" y="12" width="1" height="1" fill="#ef476f"/><rect x="13" y="13" width="5" height="1" fill="#ef476f"/><rect x="14" y="14" width="3" height="1" fill="#ef476f"/><rect x="15" y="15" width="1" height="1" fill="#ef476f"/><rect x="2" y="18" width="1" height="1" fill="#ff8fab"/><rect x="4" y="18" width="1" height="1" fill="#ff8fab"/><rect x="0" y="19" width="2" height="1" fill="#1a1c2c"/><rect x="2" y="19" width="3" height="1" fill="#ff8fab"/><rect x="5" y="19" width="1" height="1" fill="#1a1c2c"/><rect x="6" y="19" width="2" height="1" fill="#ef476f"/><rect x="8" y="19" width="6" height="1" fill="#1a1c2c"/><rect x="18" y="19" width="6" height="1" fill="#1a1c2c"/><rect x="24" y="19" width="2" height="1" fill="#ef476f"/><rect x="26" y="19" width="6" height="1" fill="#1a1c2c"/><rect x="0" y="20" width="2" height="1" fill="#f8f5f2"/><rect x="2" y="20" width="1" height="1" fill="#ff8fab"/><rect x="3" y="20" width="1" height="1" fill="#f8f5f2"/><rect x="4" y="20" width="1" height="1" fill="#ff8fab"/><rect x="5" y="20" width="1" height="1" fill="#f8f5f2"/><rect x="6" y="20" width="2" height="1" fill="#ef476f"/><rect x="8" y="20" width="6" height="1" fill="#f8f5f2"/><rect x="18" y="20" width="6" height="1" fill="#f8f5f2"/><rect x="24" y="20" width="2" height="1" fill="#ef476f"/><rect x="26" y="20" width="6" height="1" fill="#f8f5f2"/><rect x="0" y="21" width="1" height="1" fill="#1a1c2c"/><rect x="1" y="21" width="1" height="1" fill="#f8f5f2"/><rect x="2" y="21" width="10" height="1" fill="#ff8fab"/><rect x="12" y="21" width="1" height="1" fill="#f8f5f2"/><rect x="13" y="21" width="1" height="1" fill="#1a1c2c"/><rect x="18" y="21" width="1" height="1" fill="#1a1c2c"/><rect x="19" y="21" width="1" height="1" fill="#f8f5f2"/><rect x="20" y="21" width="10" height="1" fill="#ff8fab"/><rect x="30" y="21" width="1" height="1" fill="#f8f5f2"/><rect x="31" y="21" width="1" height="1" fill="#1a1c2c"/><rect x="1" y="22" width="1" height="1" fill="#1a1c2c"/><rect x="2" y="22" width="1" height="1" fill="#f8f5f2"/><rect x="3" y="22" width="8" height="1" fill="#ff8fab"/><rect x="11" y="22" width="1" height="1" fill="#f8f5f2"/><rect x="12" y="22" width="1" height="1" fill="#1a1c2c"/><rect x="19" y="22" width="1" height="1" fill="#1a1c2c"/><rect x="20" y="22" width="1" height="1" fill="#f8f5f2"/><rect x="21" y="22" width="8" height="1" fill="#ff8fab"/><rect x="29" y="22" width="1" height="1" fill="#f8f5f2"/><rect x="30" y="22" width="1" height="1" fill="#1a1c2c"/><rect x="2" y="23" width="1" height="1" fill="#1a1c2c"/><rect x="3" y="23" width="1" height="1" fill="#f8f5f2"/><rect x="4" y="23" width="6" height="1" fill="#ff8fab"/><rect x="10" y="23" width="1" height="1" fill="#f8f5f2"/><rect x="11" y="23" width="1" height="1" fill="#1a1c2c"/><rect x="20" y="23" width="1" height="1" fill="#1a1c2c"/><rect x="21" y="23" width="1" height="1" fill="#f8f5f2"/><rect x="22" y="23" width="6" height="1" fill="#ff8fab"/><rect x="28" y="23" width="1" height="1" fill="#f8f5f2"/><rect x="29" y="23" width="1" height="1" fill="#1a1c2c"/><rect x="3" y="24" width="1" height="1" fill="#1a1c2c"/><rect x="4" y="24" width="1" height="1" fill="#f8f5f2"/><rect x="5" y="24" width="4" height="1" fill="#ff8fab"/><rect x="9" y="24" width="1" height="1" fill="#f8f5f2"/><rect x="10" y="24" width="1" height="1" fill="#1a1c2c"/><rect x="21" y="24" width="1" height="1" fill="#1a1c2c"/><rect x="22" y="24" width="1" height="1" fill="#f8f5f2"/><rect x="23" y="24" width="4" height="1" fill="#ff8fab"/><rect x="27" y="24" width="1" height="1" fill="#f8f5f2"/><rect x="28" y="24" width="1" height="1" fill="#1a1c2c"/><rect x="4" y="25" width="1" height="1" fill="#1a1c2c"/><rect x="5" y="25" width="1" height="1" fill="#f8f5f2"/><rect x="6" y="25" width="2" height="1" fill="#ff8fab"/><rect x="8" y="25" width="1" height="1" fill="#f8f5f2"/><rect x="9" y="25" width="1" height="1" fill="#1a1c2c"/><rect x="22" y="25" width="1" height="1" fill="#1a1c2c"/><rect x="23" y="25" width="1" height="1" fill="#f8f5f2"/><rect x="24" y="25" width="2" height="1" fill="#ff8fab"/><rect x="26" y="25" width="1" height="1" fill="#f8f5f2"/><rect x="27" y="25" width="1" height="1" fill="#1a1c2c"/><rect x="5" y="26" width="1" height="1" fill="#1a1c2c"/><rect x="6" y="26" width="2" height="1" fill="#f8f5f2"/><rect x="8" y="26" width="1" height="1" fill="#1a1c2c"/><rect x="23" y="26" width="1" height="1" fill="#1a1c2c"/><rect x="24" y="26" width="2" height="1" fill="#f8f5f2"/><rect x="26" y="26" width="1" height="1" fill="#1a1c2c"/><rect x="5" y="27" width="1" height="1" fill="#1a1c2c"/><rect x="6" y="27" width="2" height="1" fill="#f8f5f2"/><rect x="8" y="27" width="1" height="1" fill="#1a1c2c"/><rect x="23" y="27" width="1" height="1" fill="#1a1c2c"/><rect x="24" y="27" width="2" height="1" fill="#f8f5f2"/><rect x="26" y="27" width="1" height="1" fill="#1a1c2c"/><rect x="5" y="28" width="1" height="1" fill="#1a1c2c"/><rect x="6" y="28" width="2" height="1" fill="#f8f5f2"/><rect x="8" y="28" width="1" height="1" fill="#1a1c2c"/><rect x="23" y="28" width="1" height="1" fill="#1a1c2c"/><rect x="24" y="28" width="2" height="1" fill="#f8f5f2"/><rect x="26" y="28" width="1" height="1" fill="#1a1c2c"/><rect x="3" y="29" width="2" height="1" fill="#1a1c2c"/><rect x="5" y="29" width="4" height="1" fill="#f8f5f2"/><rect x="9" y="29" width="2" height="1" fill="#1a1c2c"/><rect x="21" y="29" width="2" height="1" fill="#1a1c2c"/><rect x="23" y="29" width="4" height="1" fill="#f8f5f2"/><rect x="27" y="29" width="2" height="1" fill="#1a1c2c"/><rect x="2" y="30" width="1" height="1" fill="#1a1c2c"/><rect x="3" y="30" width="8" height="1" fill="#f8f5f2"/><rect x="11" y="30" width="1" height="1" fill="#1a1c2c"/><rect x="20" y="30" width="1" height="1" fill="#1a1c2c"/><rect x="21" y="30" width="8" height="1" fill="#f8f5f2"/><rect x="29" y="30" width="1" height="1" fill="#1a1c2c"/></svg>