<svg xmlns="http://www.w3.org/2000/svg" viewBox="0 0 32 32" width="32" height="32" shape-rendering="crispEdges"><rect x="14" y="13" width="1" height="1" fill="#ef476f"/><rect x="16" y="13" width="1" height="1" fill="#ef476f"/><rect x="13" y="14" width="5" height="1" fill="#ef476f"/><rect x="14" y="15" width="3" height="1" fill="#ef476f"/><rect x="15" y="16" width="1" height="1" fill="#ef476f"/><rect x="2" y="19" width="1" height="1" fill="#ff8fab"/><rect x="4" y="19" width="1" height="1" fill="#ff8fab"/><rect x="2" y="20" width="3" height="1" fill="#ff8fab"/><rect x="5" y="20" width="5" height="1" fill="#ffe08a"/><rect x="10" y="20" width="2" height="1" fill="#1a1c2c"/><rect x="20" y="20" width="2" height="1" fill="#1a1c2c"/><rect x="22" y="20" width="6" height="1" fill="#ffe08a"/><rect x="28" y="20" width="2" height="1" fill="#1a1c2c"/><rect x="1" y="21" width="1" height="1" fill="#1a1c2c"/><rect x="2" y="21" width="1" height="1" fill="#ff8fab"/><rect x="3" y="21" width="1" height="1" fill="#ffe08a"/><rect x="4" y="21" width="1" height="1" fill="#ff8fab"/><rect x="5" y="21" width="7" height="1" fill="#ffe08a"/><rect x="12" y="21" width="1" height="1" fill="#1a1c2c"/><rect x="19" y="21" width="1" height="1" fill="#1a1c2c"/><rect x="20" y="21" width="10" height="1" fill="#ffe08a"/><rect x="30" y="21" width="1" height="1" fill="#1a1c2c"/><rect x="0" y="22" width="1" height="1" fill="#1a1c2c"/><rect x="1" y="22" width="12" height="1" fill="#ffe08a"/><rect x="13" y="22" width="1" height="1" fill="#1a1c2c"/><rect x="18" y="22" width="1" height="1" fill="#1a1c2c"/><rect x="19" y="22" width="12" height="1" fill="#ffe08a"/><rect x="31" y="22" width="1" height="1" fill="#1a1c2c"/><rect x="0" y="23" width="1" height="1" fill="#1a1c2c"/><rect x="1" y="23" width="2" height="1" fill="#ffe08a"/><rect x="3" y="23" width="1" height="1" fill="#1a1c2c"/><rect x="4" y="23" width="6" height="1" fill="#ffe08a"/><rect x="10" y="23" width="1" height="1" fill="#1a1c2c"/><rect x="11" y="23" width="2" height="1" fill="#ffe08a"/><rect x="13" y="23" width="1" height="1" fill="#1a1c2c"/><rect x="18" y="23" width="1" height="1" fill="#1a1c2c"/><rect x="19" y="23" width="2" height="1" fill="#ffe08a"/><rect x="21" y="23" width="1" height="1" fill="#1a1c2c"/><rect x="22" y="23" width="6" height="1" fill="#ffe08a"/><rect x="28" y="23" width="1" height="1" fill="#1a1c2c"/><rect x="29" y="23" width="2" height="1" fill="#ffe08a"/><rect x="31" y="23" width="1" height="1" fill="#1a1c2c"/><rect x="0" y="24" width="3" height="1" fill="#ffe08a"/><rect x="3" y="24" width="1" height="1" fill="#1a1c2c"/><rect x="4" y="24" width="6" height="1" fill="#ffe08a"/><rect x="10" y="24" width="1" height="1" fill="#1a1c2c"/><rect x="11" y="24" width="3" height="1" fill="#ffe08a"/><rect x="18" y="24" width="3" height="1" fill="#ffe08a"/><rect x="21" y="24" width="1" height="1" fill="#1a1c2c"/><rect x="22" y="24" width="6" height="1" fill="#ffe08a"/><rect x="28" y="24" width="1" height="1" fill="#1a1c2c"/><rect x="29" y="24" width="3" height="1" fill="#ffe08a"/><rect x="0" y="25" width="14" height="1" fill="#ffe08a"/><rect x="18" y="25" width="14" height="1" fill="#ffe08a"/><rect x="0" y="26" width="3" height="1" fill="#ffe08a"/><rect x="3" y="26" width="8" height="1" fill="#f9844a"/><rect x="11" y="26" width="3" height="1" fill="#ffe08a"/><rect x="18" y="26" width="3" height="1" fill="#ffe08a"/><rect x="21" y="26" width="8" height="1" fill="#f9844a"/><rect x="29" y="26" width="3" height="1" fill="#ffe08a"/><rect x="0" y="27" width="2" height="1" fill="#ffe08a"/><rect x="2" y="27" width="10" height="1" fill="#f9844a"/><rect x="12" y="27" width="2" height="1" fill="#ffe08a"/><rect x="18" y="27" width="2" height="1" fill="#ffe08a"/><rect x="20" y="27" width="10" height="1" fill="#f9844a"/><rect x="30" y="27" width="2" height="1" fill="#ffe08a"/><rect x="0" y="28" width="3" height="1" fill="#ffe08a"/><rect x="3" y="28" width="8" height="1" fill="#f9844a"/><rect x="11" y="28" width="3" height="1" fill="#ffe08a"/><rect x="18" y="28" width="3" height="1" fill="#ffe08a"/><rect x="21" y="28" width="8" height="1" fill="#f9844a"/><rect x="29" y="28" width="3" height="1" fill="#ffe08a"/><rect x="0" y="29" width="1" height="1" fill="#1a1c2c"/><rect x="1" y="29" width="12" height="1" fill="#ffe08a"/><rect x="13" y="29" width="1" height="1" fill="#1a1c2c"/><rect x="18" y="29" width="1" height="1" fill="#1a1c2c"/><rect x="19" y="29" width="12" height="1" fill="#ffe08a"/><rect x="31" y="29" width="1" height="1" fill="#1a1c2c"/><rect x="1" y="30" width="1" height="1" fill="#1a1c2c"/><rect x="2" y="30" width="10" height="1" fill="#ffe08a"/><rect x="12" y="30" width="1" height="1" fill="#1a1c2c"/><rect x="19" y="30" width="1" height="1" fill="#1a1c2c"/><rect x="20" y="30" width="10" height="1" fill="#ffe08a"/><rect x="30" y="30" width="1" height="1" fill="#1a1c2c"/></svg>