<svg xmlns="http://www.w3.org/2000/svg" viewBox="0 0 32 32" width="32" height="32" shape-rendering="crispEdges"><rect x="14" y="11" width="1" height="1" fill="#ef476f"/><rect x="16" y="11" width="1" height="1" fill="#ef476f"/><rect x="13" y="12" width="5" height="1" fill="#ef476f"/><rect x="14" y="13" width="3" height="1" fill="#ef476f"/><rect x="15" y="14" width="1" height="1" fill="#ef476f"/><rect x="2" y="17" width="1" height="1" fill="#ff8fab"/><rect x="4" y="17" width="1" height="1" fill="#ff8fab"/><rect x="0" y="18" width="2" height="1" fill="#a5673f"/><rect x="2" y="18" width="3" height="1" fill="#ff8fab"/><rect x="5" y="18" width="9" height="1" fill="#a5673f"/><rect x="18" y="18" width="14" height="1" fill="#a5673f"/><rect x="0" y="19" width="1" height="1" fill="#a5673f"/><rect x="1" y="19" width="1" height="1" fill="#ffd166"/><rect x="2" y="19" width="1" height="1" fill="#ff8fab"/><rect x="3" y="19" width="1" height="1" fill="#ffd166"/><rect x="4" y="19" width="1" height="1" fill="#ff8fab"/><rect x="5" y="19" width="8" height="1" fill="#ffd166"/><rect x="13" y="19" width="1" height="1" fill="#a5673f"/><rect x="18" y="19" width="1" height="1" fill="#a5673f"/><rect x="19" y="19" width="12" height="1" fill="#ffd166"/><rect x="31" y="19" width="1" height="1" fill="#a5673f"/><rect x="0" y="20" width="1" height="1" fill="#1a1c2c"/><rect x="1" y="20" width="1" height="1" fill="#ffd166"/><rect x="2" y="20" width="10" height="1" fill="#ffe08a"/><rect x="12" y="20" width="1" height="1" fill="#ffd166"/><rect x="13" y="20" width="1" height="1" fill="#1a1c2c"/><rect x="18" y="20" width="1" height="1" fill="#1a1c2c"/><rect x="19" y="20" width="1" height="1" fill="#ffd166"/><rect x="20" y="20" width="10" height="1" fill="#ffe08a"/><rect x="30" y="20" width="1" height="1" fill="#ffd166"/><rect x="31" y="20" width="1" height="1" fill="#1a1c2c"/><rect x="0" y="21" width="1" height="1" fill="#1a1c2c"/><rect x="1" y="21" width="1" height="1" fill="#ffd166"/><rect x="2" y="21" width="2" height="1" fill="#ffe08a"/><rect x="4" y="21" width="1" height="1" fill="#ef476f"/><rect x="5" y="21" width="4" height="1" fill="#ffe08a"/><rect x="9" y="21" width="1" height="1" fill="#ef476f"/><rect x="10" y="21" width="2" height="1" fill="#ffe08a"/><rect x="12" y="21" width="1" height="1" fill="#ffd166"/><rect x="13" y="21" width="1" height="1" fill="#1a1c2c"/><rect x="18" y="21" width="1" height="1" fill="#1a1c2c"/><rect x="19" y="21" width="1" height="1" fill="#ffd166"/><rect x="20" y="21" width="2" height="1" fill="#ffe08a"/><rect x="22" y="21" width="1" height="1" fill="#ef476f"/><rect x="23" y="21" width="4" height="1" fill="#ffe08a"/><rect x="27" y="21" width="1" height="1" fill="#ef476f"/><rect x="28" y="21" width="2" height="1" fill="#ffe08a"/><rect x="30" y="21" width="1" height="1" fill="#ffd166"/><rect x="31" y="21" width="1" height="1" fill="#1a1c2c"/><rect x="1" y="22" width="1" height="1" fill="#1a1c2c"/><rect x="2" y="22" width="1" height="1" fill="#ffd166"/><rect x="3" y="22" width="8" height="1" fill="#ffe08a"/><rect x="11" y="22" width="1" height="1" fill="#ffd166"/><rect x="12" y="22" width="1" height="1" fill="#1a1c2c"/><rect x="19" y="22" width="1" height="1" fill="#1a1c2c"/><rect x="20" y="22" width="1" height="1" fill="#ffd166"/><rect x="21" y="22" width="8" height="1" fill="#ffe08a"/><rect x="29" y="22" width="1" height="1" fill="#ffd166"/><rect x="30" y="22" width="1" height="1" fill="#1a1c2c"/><rect x="1" y="23" width="1" height="1" fill="#1a1c2c"/><rect x="2" y="23" width="1" height="1" fill="#ffd166"/><rect x="3" y="23" width="1" height="1" fill="#ffe08a"/><rect x="4" y="23" width="1" height="1" fill="#ef476f"/><rect x="5" y="23" width="4" height="1" fill="#ffe08a"/><rect x="9" y="23" width="1" height="1" fill="#ef476f"/><rect x="10" y="23" width="1" height="1" fill="#ffe08a"/><rect x="11" y="23" width="1" height="1" fill="#ffd166"/><rect x="12" y="23" width="1" height="1" fill="#1a1c2c"/><rect x="19" y="23" width="1" height="1" fill="#1a1c2c"/><rect x="20" y="23" width="1" height="1" fill="#ffd166"/><rect x="21" y="23" width="1" height="1" fill="#ffe08a"/><rect x="22" y="23" width="1" height="1" fill="#ef476f"/><rect x="23" y="23" width="4" height="1" fill="#ffe08a"/><rect x="27" y="23" width="1" height="1" fill="#ef476f"/><rect x="28" y="23" width="1" height="1" fill="#ffe08a"/><rect x="29" y="23" width="1" height="1" fill="#ffd166"/><rect x="30" y="23" width="1" height="1" fill="#1a1c2c"/><rect x="2" y="24" width="1" height="1" fill="#1a1c2c"/><rect x="3" y="24" width="1" height="1" fill="#ffd166"/><rect x="4" y="24" width="6" height="1" fill="#ffe08a"/><rect x="10" y="24" width="1" height="1" fill="#ffd166"/><rect x="11" y="24" width="1" height="1" fill="#1a1c2c"/><rect x="20" y="24" width="1" height="1" fill="#1a1c2c"/><rect x="21" y="24" width="1" height="1" fill="#ffd166"/><rect x="22" y="24" width="6" height="1" fill="#ffe08a"/><rect x="28" y="24" width="1" height="1" fill="#ffd166"/><rect x="29" y="24" width="1" height="1" fill="#1a1c2c"/><rect x="2" y="25" width="1" height="1" fill="#1a1c2c"/><rect x="3" y="25" width="1" height="1" fill="#ffd166"/><rect x="4" y="25" width="2" height="1" fill="#ffe08a"/><rect x="6" y="25" width="1" height="1" fill="#ef476f"/><rect x="7" y="25" width="3" height="1" fill="#ffe08a"/><rect x="10" y="25" width="1" height="1" fill="#ffd166"/><rect x="11" y="25" width="1" height="1" fill="#1a1c2c"/><rect x="20" y="25" width="1" height="1" fill="#1a1c2c"/><rect x="21" y="25" width="1" height="1" fill="#ffd166"/><rect x="22" y="25" width="3" height="1" fill="#ffe08a"/><rect x="25" y="25" width="1" height="1" fill="#ef476f"/><rect x="26" y="25" width="2" height="1" fill="#ffe08a"/><rect x="28" y="25" width="1" height="1" fill="#ffd166"/><rect x="29" y="25" width="1" height="1" fill="#1a1c2c"/><rect x="3" y="26" width="1" height="1" fill="#1a1c2c"/><rect x="4" y="26" width="1" height="1" fill="#ffd166"/><rect x="5" y="26" width="4" height="1" fill="#ffe08a"/><rect x="9" y="26" width="1" height="1" fill="#ffd166"/><rect x="10" y="26" width="1" height="1" fill="#1a1c2c"/><rect x="21" y="26" width="1" height="1" fill="#1a1c2c"/><rect x="22" y="26" width="1" height="1" fill="#ffd166"/><rect x="23" y="26" width="4" height="1" fill="#ffe08a"/><rect x="27" y="26" width="1" height="1" fill="#ffd166"/><rect x="28" y="26" width="1" height="1" fill="#1a1c2c"/><rect x="3" y="27" width="1" height="1" fill="#1a1c2c"/><rect x="4" y="27" width="1" height="1" fill="#ffd166"/><rect x="5" y="27" width="4" height="1" fill="#ffe08a"/><rect x="9" y="27" width="1" height="1" fill="#ffd166"/><rect x="10" y="27" width="1" height="1" fill="#1a1c2c"/><rect x="21" y="27" width="1" height="1" fill="#1a1c2c"/><rect x="22" y="27" width="1" height="1" fill="#ffd166"/><rect x="23" y="27" width="4" height="1" fill="#ffe08a"/><rect x="27" y="27" width="1" height="1" fill="#ffd166"/><rect x="28" y="27" width="1" height="1" fill="#1a1c2c"/><rect x="4" y="28" width="1" height="1" fill="#1a1c2c"/><rect x="5" y="28" width="1" height="1" fill="#ffd166"/><rect x="6" y="28" width="2" height="1" fill="#ffe08a"/><rect x="8" y="28" width="1" height="1" fill="#ffd166"/><rect x="9" y="28" width="1" height="1" fill="#1a1c2c"/><rect x="22" y="28" width="1" height="1" fill="#1a1c2c"/><rect x="23" y="28" width="1" height="1" fill="#ffd166"/><rect x="24" y="28" width="2" height="1" fill="#ffe08a"/><rect x="26" y="28" width="1" height="1" fill="#ffd166"/><rect x="27" y="28" width="1" height="1" fill="#1a1c2c"/><rect x="4" y="29" width="1" height="1" fill="#1a1c2c"/><rect x="5" y="29" width="1" height="1" fill="#ffd166"/><rect x="6" y="29" width="2" height="1" fill="#ffe08a"/><rect x="8" y="29" width="1" height="1" fill="#ffd166"/><rect x="9" y="29" width="1" height="1" fill="#1a1c2c"/><rect x="22" y="29" width="1" height="1" fill="#1a1c2c"/><rect x="23" y="29" width="1" height="1" fill="#ffd166"/><rect x="24" y="29" width="2" height="1" fill="#ffe08a"/><rect x="26" y="29" width="1" height="1" fill="#ffd166"/><rect x="27" y="29" width="1" height="1" fill="#1a1c2c"/><rect x="5" y="30" width="1" height="1" fill="#1a1c2c"/><rect x="6" y="30" width="2" height="1" fill="#ffd166"/><rect x="8" y="30" width="1" height="1" fill="#1a1c2c"/><rect x="23" y="30" width="1" height="1" fill="#1a1c2c"/><rect x="24" y="30" width="2" height="1" fill="#ffd166"/><rect x="26" y="30" width="1" height="1" fill="#1a1c2c"/></svg>