<svg xmlns="http://www.w3.org/2000/svg" viewBox="0 0 16 16" width="16" height="16" shape-rendering="crispEdges"><rect x="5" y="3" width="1" height="1" fill="#1a1c2c"/><rect x="6" y="3" width="1" height="1" fill="#f9844a"/><rect x="7" y="3" width="1" height="1" fill="#1a1c2c"/><rect x="9" y="3" width="1" height="1" fill="#1a1c2c"/><rect x="4" y="4" width="1" height="1" fill="#1a1c2c"/><rect x="5" y="4" width="2" height="1" fill="#f9844a"/><rect x="7" y="4" width="2" height="1" fill="#1a1c2c"/><rect x="9" y="4" width="1" height="1" fill="#f9844a"/><rect x="10" y="4" width="1" height="1" fill="#1a1c2c"/><rect x="3" y="5" width="1" height="1" fill="#1a1c2c"/><rect x="4" y="5" width="3" height="1" fill="#f9844a"/><rect x="7" y="5" width="1" height="1" fill="#1a1c2c"/><rect x="8" y="5" width="2" height="1" fill="#f9844a"/><rect x="10" y="5" width="1" height="1" fill="#1a1c2c"/><rect x="3" y="6" width="1" height="1" fill="#1a1c2c"/><rect x="4" y="6" width="6" height="1" fill="#f9844a"/><rect x="10" y="6" width="1" height="1" fill="#1a1c2c"/><rect x="2" y="7" width="1" height="1" fill="#1a1c2c"/><rect x="3" y="7" width="2" height="1" fill="#ef476f"/><rect x="5" y="7" width="2" height="1" fill="#1a1c2c"/><rect x="7" y="7" width="2" height="1" fill="#ef476f"/><rect x="9" y="7" width="1" height="1" fill="#1a1c2c"/><rect x="2" y="8" width="4" height="1" fill="#ef476f"/><rect x="6" y="8" width="1" height="1" fill="#1a1c2c"/><rect x="7" y="8" width="3" height="1" fill="#ef476f"/><rect x="10" y="8" width="1" height="1" fill="#1a1c2c"/><rect x="2" y="9" width="1" height="1" fill="#ef476f"/><rect x="3" y="9" width="1" height="1" fill="#f8f5f2"/><rect x="4" y="9" width="6" height="1" fill="#ef476f"/><rect x="10" y="9" width="1" height="1" fill="#1a1c2c"/><rect x="2" y="10" width="1" height="1" fill="#1a1c2c"/><rect x="3" y="10" width="6" height="1" fill="#ef476f"/><rect x="9" y="10" width="1" height="1" fill="#1a1c2c"/><rect x="3" y="11" width="1" height="1" fill="#1a1c2c"/><rect x="4" y="11" width="4" height="1" fill="#ef476f"/><rect x="8" y="11" width="1" height="1" fill="#1a1c2c"/><rect x="4" y="12" width="1" height="1" fill="#1a1c2c"/><rect x="5" y="12" width="2" height="1" fill="#ef476f"/><rect x="7" y="12" width="1" height="1" fill="#1a1c2c"/></svg>