<svg xmlns="http://www.w3.org/2000/svg" viewBox="0 0 16 16" width="16" height="16" shape-rendering="crispEdges"><rect x="6" y="4" width="1" height="1" fill="#1a1c2c"/><rect x="7" y="4" width="2" height="1" fill="#a5673f"/><rect x="9" y="4" width="1" height="1" fill="#1a1c2c"/><rect x="4" y="5" width="2" height="1" fill="#1a1c2c"/><rect x="6" y="5" width="4" height="1" fill="#a5673f"/><rect x="10" y="5" width="2" height="1" fill="#1a1c2c"/><rect x="3" y="6" width="1" height="1" fill="#1a1c2c"/><rect x="4" y="6" width="8" height="1" fill="#a5673f"/><rect x="12" y="6" width="1" height="1" fill="#1a1c2c"/><rect x="3" y="7" width="10" height="1" fill="#a5673f"/><rect x="3" y="8" width="4" height="1" fill="#a5673f"/><rect x="7" y="8" width="3" height="1" fill="#ffd166"/><rect x="10" y="8" width="3" height="1" fill="#a5673f"/><rect x="3" y="9" width="10" height="1" fill="#a5673f"/><rect x="3" y="10" width="10" height="1" fill="#a5673f"/><rect x="3" y="11" width="1" height="1" fill="#1a1c2c"/><rect x="4" y="11" width="8" height="1" fill="#a5673f"/><rect x="12" y="11" width="1" height="1" fill="#1a1c2c"/></svg>