<svg xmlns="http://www.w3.org/2000/svg" viewBox="0 0 6 4" width="6" height="4" shape-rendering="crispEdges"><rect x="0" y="0" width="1" height="1" fill="#35a7ff"/><rect x="1" y="0" width="1" height="1" fill="#f8f5f2"/><rect x="2" y="0" width="2" height="1" fill="#35a7ff"/><rect x="4" y="0" width="1" height="1" fill="#f8f5f2"/><rect x="5" y="0" width="1" height="1" fill="#35a7ff"/><rect x="0" y="1" width="6" height="1" fill="#f8f5f2"/><rect x="0" y="2" width="1" height="1" fill="#35a7ff"/><rect x="1" y="2" width="1" height="1" fill="#f8f5f2"/><rect x="2" y="2" width="2" height="1" fill="#35a7ff"/><rect x="4" y="2" width="1" height="1" fill="#f8f5f2"/><rect x="5" y="2" width="1" height="1" fill="#35a7ff"/><rect x="0" y="3" width="1" height="1" fill="#35a7ff"/><rect x="1" y="3" width="1" height="1" fill="#f8f5f2"/><rect x="2" y="3" width="2" height="1" fill="#35a7ff"/><rect x="4" y="3" width="1" height="1" fill="#f8f5f2"/><rect x="5" y="3" width="1" height="1" fill="#35a7ff"/></svg>